<?xml version="1.0" encoding="utf-8"?><!-- Uploaded to: SVG Repo, www.svgrepo.com, Generator: SVG Repo Mixer Tools -->
<svg width="800px" height="800px" viewBox="0 0 512 512" xmlns="http://www.w3.org/2000/svg" xmlns:xlink="http://www.w3.org/1999/xlink" aria-hidden="true" role="img" class="iconify iconify--fxemoji" preserveAspectRatio="xMidYMid meet"><path fill="#FFD469" d="M450.812 462.658H74.759a8.802 8.802 0 0 1-8.802-8.802V77.802A8.802 8.802 0 0 1 74.759 69H290.76l168.854 168.854v216.001a8.802 8.802 0 0 1-8.802 8.803z"></path><path fill="#597B91" d="M242.863 168.403H126.007c-6.613 0-11.974-5.361-11.974-11.974s5.361-11.974 11.974-11.974h116.856c6.613 0 11.974 5.361 11.974 11.974s-5.361 11.974-11.974 11.974zm11.974 66.401c0-6.613-5.361-11.974-11.974-11.974H126.007c-6.613 0-11.974 5.361-11.974 11.974s5.361 11.974 11.974 11.974h116.856c6.613-.001 11.974-5.361 11.974-11.974zm0 78.374c0-6.612-5.361-11.974-11.974-11.974H126.007c-6.613 0-11.974 5.361-11.974 11.974s5.361 11.974 11.974 11.974h116.856c6.613-.001 11.974-5.362 11.974-11.974zm101.165 78.374c0-6.612-5.361-11.974-11.974-11.974H126.007c-6.613 0-11.974 5.361-11.974 11.974s5.361 11.974 11.974 11.974h218.021c6.613-.001 11.974-5.362 11.974-11.974zm40.334-78.374c0-6.612-5.361-11.974-11.974-11.974h-80.668c-6.612 0-11.974 5.361-11.974 11.974s5.361 11.974 11.974 11.974h80.668c6.613-.001 11.974-5.362 11.974-11.974z"></path><path fill="#FFB636" d="M290.76 69l168.854 168.854H326.651c-19.822 0-35.891-16.069-35.891-35.891V69z"></path></svg>