<svg width="32" height="32" viewBox="0 0 32 32" fill="none" xmlns="http://www.w3.org/2000/svg">
  <g clip-path="url(#clip0_504_961)">
    <path d="M17.5267 25.32C16.2533 25.32 15.12 24.5133 14.6933 23.3133C13.7933 20.74 9.69334 15.3933 7.32 12.6267C6.24 11.3667 6.38667 9.47333 7.64 8.39333C8.9 7.31333 10.7933 7.46 11.8667 8.71333C12.3067 9.22666 14.9067 12.28 17.1733 15.5933C19.1067 11.7067 22.22 6.44 26.68 1.66C27.8133 0.446666 29.7133 0.386666 30.92 1.51333C32.1333 2.64667 32.1933 4.54 31.0667 5.75333C23.7267 13.6133 20.3933 23.1867 20.36 23.28C19.9467 24.4867 18.8133 25.3 17.5333 25.3067H17.52L17.5267 25.32Z" fill="url(#paint0_linear_504_961)"/>
    <path d="M28.1 32H3.9C1.74667 32 0 30.2533 0 28.1V3.9C0 1.74667 1.74667 0 3.9 0H20.5267C22.0867 0 23.3467 1.26 23.3467 2.82C23.3467 4.38 22.0867 5.64 20.5267 5.64H5.64V26.3667H26.3667V14.4467C26.3667 12.8867 27.6267 11.6267 29.1867 11.6267C30.7467 11.6267 32.0067 12.8867 32.0067 14.4467V28.1067C32.0067 30.26 30.26 32.0067 28.1067 32.0067L28.1 32Z" fill="url(#paint1_linear_504_961)"/>
  </g>
  <defs>
    <linearGradient id="paint0_linear_504_961" x1="6.55582" y1="13.0137" x2="31.8935" y2="13.0137" gradientUnits="userSpaceOnUse">
      <stop stop-color="#FB43FF"/>
      <stop offset="0.97" stop-color="#FB406D"/>
    </linearGradient>
    <linearGradient id="paint1_linear_504_961" x1="-0.0512164" y1="16.0033" x2="32.0333" y2="16.0033" gradientUnits="userSpaceOnUse">
      <stop stop-color="#FB43FF"/>
      <stop offset="0.97" stop-color="#FB406D"/>
    </linearGradient>
    <clipPath id="clip0_504_961">
      <rect width="32" height="32" fill="white"/>
    </clipPath>
  </defs>
</svg>
