<svg width="20" height="20" viewBox="0 0 200 200" fill="none" xmlns="http://www.w3.org/2000/svg">
<path fill-rule="evenodd" clip-rule="evenodd" d="M167.737 20.0076C170.801 19.8483 173.414 22.2031 173.573 25.2672C174.779 48.4561 176.227 83.5867 176.649 113.616C176.861 128.617 176.817 142.433 176.351 152.876C176.119 158.08 175.776 162.579 175.281 166.016C175.036 167.722 174.732 169.32 174.333 170.675C174.024 171.725 173.367 173.741 171.793 175.193C169.539 177.274 166.024 177.134 163.943 174.879C162.081 172.863 161.997 169.838 163.613 167.733C163.623 167.703 163.633 167.671 163.644 167.636C163.654 167.606 163.664 167.572 163.674 167.537C163.86 166.907 164.073 165.895 164.284 164.433C164.701 161.532 165.024 157.456 165.251 152.38C165.703 142.266 165.75 128.707 165.539 113.773C165.119 83.9318 163.679 48.9515 162.477 25.8442C162.318 22.7801 164.672 20.167 167.737 20.0076ZM163.513 167.996C163.512 167.994 163.522 167.968 163.546 167.923C163.525 167.975 163.513 167.998 163.513 167.996ZM101.63 34.4514C104.694 34.6013 107.057 37.2071 106.907 40.2716C105.891 61.0668 104.672 92.5238 104.316 119.31C104.139 132.716 104.178 144.869 104.56 153.906C104.752 158.443 105.025 162.066 105.375 164.624C105.553 165.917 105.73 166.785 105.876 167.301L105.885 167.332C107.371 169.415 107.261 172.322 105.469 174.293C103.405 176.563 99.8918 176.73 97.6215 174.666C96.706 173.834 96.1856 172.886 95.9011 172.285C95.588 171.623 95.3594 170.944 95.1852 170.328C94.8371 169.099 94.576 167.656 94.3672 166.133C93.9461 163.06 93.6557 159.032 93.459 154.375C93.0641 145.027 93.0276 132.631 93.2063 119.163C93.5639 92.1989 94.7892 60.6005 95.8096 39.7291C95.9594 36.6645 98.5652 34.3016 101.63 34.4514ZM63.3525 73.3395C66.4175 73.1983 69.0166 75.5686 69.1577 78.6336C69.8077 92.7467 70.5881 114.341 70.816 133.267C70.9298 142.721 70.9067 151.574 70.6548 158.517C70.5291 161.982 70.3438 165.05 70.078 167.516C69.8436 169.691 69.4779 172.226 68.6424 174.016C67.3449 176.796 64.0391 177.999 61.2587 176.701C58.4783 175.404 57.2762 172.098 58.5737 169.317C58.5596 169.348 58.5644 169.326 58.5834 169.243C58.6422 168.983 58.837 168.124 59.0309 166.325C59.2563 164.235 59.4296 161.462 59.551 158.115C59.7933 151.435 59.8187 142.789 59.7057 133.4C59.4799 114.641 58.7048 93.1796 58.0584 79.1447C57.9173 76.0797 60.2875 73.4806 63.3525 73.3395ZM140.247 97.778C140.247 94.7097 137.76 92.2224 134.692 92.2224C131.624 92.2224 129.136 94.7097 129.136 97.778V97.789V97.801V97.8142V97.8285V97.8438V97.8603V97.8778V97.8964V97.9161V97.9369V97.9587V97.9816V98.0056V98.0306V98.0567V98.0839V98.1121V98.1414V98.1717V98.203V98.2354V98.2688V98.3033V98.3388V98.3753V98.4128V98.4514V98.4909V98.5315V98.5731V98.6157V98.6593V98.7039V98.7495V98.7961V98.8437V98.8923V98.9419V98.9924V99.0439V99.0964V99.1499V99.2043V99.2597V99.316V99.3733V99.4316V99.4908V99.551V99.6121V99.6741V99.7371V99.801V99.8659V99.9317V99.9984V100.066V100.135V100.204V100.274V100.346V100.418V100.491V100.565V100.64V100.716V100.792V100.87V100.948V101.027V101.108V101.189V101.271V101.353V101.437V101.522V101.607V101.693V101.78V101.868V101.957V102.046V102.137V102.228V102.32V102.413V102.507V102.601V102.697V102.793V102.89V102.988V103.086V103.186V103.286V103.387V103.489V103.591V103.695V103.799V103.904V104.009V104.116V104.223V104.331V104.44V104.549V104.659V104.77V104.882V104.995V105.108V105.222V105.337V105.452V105.568V105.685V105.803V105.921V106.04V106.16V106.28V106.401V106.523V106.646V106.769V106.893V107.018V107.143V107.269V107.396V107.523V107.651V107.78V107.909V108.039V108.17V108.301V108.433V108.566V108.699V108.833V108.967V109.102V109.238V109.375V109.512V109.65V109.788V109.927V110.066V110.206V110.347V110.489V110.631V110.773V110.916V111.06V111.204V111.349V111.495V111.641V111.787V111.935V112.082V112.231V112.38V112.529V112.679V112.83V112.981V113.132V113.284V113.437V113.59V113.744V113.898V114.053V114.209V114.365V114.521V114.678V114.835V114.993V115.151V115.31V115.47V115.63V115.79V115.951V116.112V116.274V116.436V116.599V116.762V116.926V117.09V117.255V117.42V117.585V117.751V117.918V118.085V118.252V118.42V118.588V118.756V118.925V119.095V119.265V119.435V119.605V119.776V119.948V120.12V120.292V120.465V120.638V120.811V120.985V121.159V121.334V121.509V121.684V121.86V122.036V122.213V122.389V122.567V122.744V122.922V123.1V123.279V123.458V123.637V123.816V123.996V124.176V124.357V124.538V124.719V124.901V125.082V125.264V125.447V125.63V125.813V125.996V126.179V126.363V126.547V126.732V126.917V127.102V127.287V127.472V127.658V127.844V128.03V128.217V128.404V128.591V128.778V128.966V129.154V129.342V129.53V129.718V129.907V130.096V130.285V130.474V130.664V130.854V131.044V131.234V131.424V131.615V131.805V131.996V132.188V132.379V132.57V132.762V132.954V133.146V133.338V133.53V133.723V133.915V134.108V134.301V134.494V134.688V134.881V135.074V135.268V135.462V135.656V135.85V136.044V136.238V136.432V136.627V136.821V137.016V137.211V137.406V137.601V137.796V137.991V138.186V138.381V138.577V138.772V138.968V139.163V139.359V139.555V139.751V139.946V140.142V140.338V140.534V140.73V140.926V141.122V141.318V141.514V141.711V141.907V142.103V142.299V142.495V142.692V142.888V143.084V143.28V143.476V143.673V143.869V144.065V144.261V144.457V144.653V144.85V145.046V145.242V145.438V145.633V145.829V146.025V146.221V146.417V146.612V146.808V147.004V147.199V147.394V147.59V147.785V147.98V148.175V148.37V148.565V148.76V148.955V149.149V149.344V149.538V149.732V149.927V150.121V150.315V150.508V150.702V150.896V151.089V151.282V151.476V151.669V151.861V152.054V152.247V152.439V152.631V152.823V153.015V153.207V153.398V153.59V153.781V153.972V154.163V154.353V154.544V154.734V154.924V155.114V155.304V155.493V155.682V155.871V156.06V156.249V156.437V156.625V156.813V157V157.188V157.375V157.562V157.749V157.935V158.121V158.307V158.493V158.678V158.863V159.048V159.232V159.417V159.601V159.784V159.968V160.151V160.334V160.516V160.698V160.88V161.062V161.243V161.424V161.605V161.785V161.965V162.145V162.324V162.503V162.682V162.86V163.038V163.216V163.393V163.57V163.746V163.923V164.099V164.274V164.449V164.624V164.798V164.972V165.146V165.319V165.492V165.664V165.836V166.008V166.179V166.35V166.52V166.69V166.86V167.029V167.198V167.366V167.534V167.701V167.868V168.035V168.201V168.367V168.532V168.697V168.861V169.025V169.188V169.351V169.514V169.676V169.837V169.998V170.159V170.319V170.478V170.637V170.796V170.954V171.112V171.269V171.425V171.581V171.737V171.892V172.046V172.2V172.354V172.507V172.659V172.811V172.962V173.113V173.263V173.413V173.562V173.71V173.858V174.006V174.153V174.299V174.444C129.136 177.513 131.624 180 134.692 180C137.76 180 140.247 177.513 140.247 174.444V174.299V174.153V174.006V173.858V173.71V173.562V173.413V173.263V173.113V172.962V172.811V172.659V172.507V172.354V172.2V172.046V171.892V171.737V171.581V171.425V171.269V171.112V170.954V170.796V170.637V170.478V170.319V170.159V169.998V169.837V169.676V169.514V169.351V169.188V169.025V168.861V168.697V168.532V168.367V168.201V168.035V167.868V167.701V167.534V167.366V167.198V167.029V166.86V166.69V166.52V166.35V166.179V166.008V165.836V165.664V165.492V165.319V165.146V164.972V164.798V164.624V164.449V164.274V164.099V163.923V163.746V163.57V163.393V163.216V163.038V162.86V162.682V162.503V162.324V162.145V161.965V161.785V161.605V161.424V161.243V161.062V160.88V160.698V160.516V160.334V160.151V159.968V159.784V159.601V159.417V159.232V159.048V158.863V158.678V158.493V158.307V158.121V157.935V157.749V157.562V157.375V157.188V157V156.813V156.625V156.437V156.249V156.06V155.871V155.682V155.493V155.304V155.114V154.924V154.734V154.544V154.353V154.163V153.972V153.781V153.59V153.398V153.207V153.015V152.823V152.631V152.439V152.247V152.054V151.861V151.669V151.476V151.282V151.089V150.896V150.702V150.508V150.315V150.121V149.927V149.732V149.538V149.344V149.149V148.955V148.76V148.565V148.37V148.175V147.98V147.785V147.59V147.394V147.199V147.004V146.808V146.612V146.417V146.221V146.025V145.829V145.633V145.438V145.242V145.046V144.85V144.653V144.457V144.261V144.065V143.869V143.673V143.476V143.28V143.084V142.888V142.692V142.495V142.299V142.103V141.907V141.711V141.514V141.318V141.122V140.926V140.73V140.534V140.338V140.142V139.946V139.751V139.555V139.359V139.163V138.968V138.772V138.577V138.381V138.186V137.991V137.796V137.601V137.406V137.211V137.016V136.821V136.627V136.432V136.238V136.044V135.85V135.656V135.462V135.268V135.074V134.881V134.688V134.494V134.301V134.108V133.915V133.723V133.53V133.338V133.146V132.954V132.762V132.57V132.379V132.188V131.996V131.805V131.615V131.424V131.234V131.044V130.854V130.664V130.474V130.285V130.096V129.907V129.718V129.53V129.342V129.154V128.966V128.778V128.591V128.404V128.217V128.03V127.844V127.658V127.472V127.287V127.102V126.917V126.732V126.547V126.363V126.179V125.996V125.813V125.63V125.447V125.264V125.082V124.901V124.719V124.538V124.357V124.176V123.996V123.816V123.637V123.458V123.279V123.1V122.922V122.744V122.567V122.389V122.213V122.036V121.86V121.684V121.509V121.334V121.159V120.985V120.811V120.638V120.465V120.292V120.12V119.948V119.776V119.605V119.435V119.265V119.095V118.925V118.756V118.588V118.42V118.252V118.085V117.918V117.751V117.585V117.42V117.255V117.09V116.926V116.762V116.599V116.436V116.274V116.112V115.951V115.79V115.63V115.47V115.31V115.151V114.993V114.835V114.678V114.521V114.365V114.209V114.053V113.898V113.744V113.59V113.437V113.284V113.132V112.981V112.83V112.679V112.529V112.38V112.231V112.082V111.935V111.787V111.641V111.495V111.349V111.204V111.06V110.916V110.773V110.631V110.489V110.347V110.206V110.066V109.927V109.788V109.65V109.512V109.375V109.238V109.102V108.967V108.833V108.699V108.566V108.433V108.301V108.17V108.039V107.909V107.78V107.651V107.523V107.396V107.269V107.143V107.018V106.893V106.769V106.646V106.523V106.401V106.28V106.16V106.04V105.921V105.803V105.685V105.568V105.452V105.337V105.222V105.108V104.995V104.882V104.77V104.659V104.549V104.44V104.331V104.223V104.116V104.009V103.904V103.799V103.695V103.591V103.489V103.387V103.286V103.186V103.086V102.988V102.89V102.793V102.697V102.601V102.507V102.413V102.32V102.228V102.137V102.046V101.957V101.868V101.78V101.693V101.607V101.522V101.437V101.353V101.271V101.189V101.108V101.027V100.948V100.87V100.792V100.716V100.64V100.565V100.491V100.418V100.346V100.274V100.204V100.135V100.066V99.9984V99.9317V99.8659V99.801V99.7371V99.6741V99.6121V99.551V99.4908V99.4316V99.3733V99.316V99.2597V99.2043V99.1499V99.0964V99.0439V98.9924V98.9419V98.8923V98.8437V98.7961V98.7495V98.7039V98.6593V98.6157V98.5731V98.5315V98.4909V98.4514V98.4128V98.3753V98.3388V98.3033V98.2688V98.2354V98.203V98.1717V98.1414V98.1121V98.0839V98.0567V98.0306V98.0056V97.9816V97.9587V97.9369V97.9161V97.8964V97.8778V97.8603V97.8438V97.8285V97.8142V97.801V97.789V97.778ZM34.0938 116.211C33.842 113.153 31.1589 110.878 28.101 111.13C25.0431 111.382 22.7684 114.065 23.0202 117.123C23.6618 124.914 24.4314 137.072 24.6554 148.181C24.7675 153.743 24.7409 158.958 24.5048 163.196C24.253 167.718 23.7914 170.316 23.4199 171.218C22.2517 174.055 23.6046 177.302 26.4417 178.47C29.2789 179.639 32.5259 178.286 33.6941 175.448C34.8782 172.573 35.3564 168.166 35.5987 163.814C35.8569 159.178 35.8789 153.651 35.7642 147.957C35.5344 136.558 34.7485 124.161 34.0938 116.211Z" fill="url(#paint0_linear_18_443)"/>
<defs>
<linearGradient id="paint0_linear_18_443" x1="28.9377" y1="154.533" x2="164.329" y2="74.0114" gradientUnits="userSpaceOnUse">
<stop offset="0.03" stop-color="#C536C9"/>
<stop offset="0.495" stop-color="#E83EEC"/>
<stop offset="0.97" stop-color="#FB406D"/>
</linearGradient>
</defs>
</svg>
