<svg width="20" height="20" viewBox="0 0 200 200" fill="none" xmlns="http://www.w3.org/2000/svg">
<path fill-rule="evenodd" clip-rule="evenodd" d="M36.2333 48.5166C37.7134 46.9019 40.4292 45.0955 44.5993 43.3042C48.689 41.5473 53.7954 39.9652 59.6632 38.5941C71.3939 35.8531 85.6994 34.0629 99.9854 33.2656C114.268 32.4684 128.333 32.6745 139.562 33.8514C145.186 34.4408 149.969 35.2606 153.656 36.2689C157.554 37.3347 159.478 38.4175 160.14 39.0533C161.052 39.9286 162.203 41.6589 163.38 44.5154C164.525 47.2957 165.552 50.79 166.414 54.8298C168.137 62.9066 169.105 72.7208 169.203 82.4161C169.302 92.1339 168.523 101.459 166.887 108.6C166.066 112.181 165.078 114.996 164.013 116.981C162.903 119.048 162.03 119.628 161.751 119.748C158.941 120.953 153.019 121.843 144.542 122.479C138.693 122.918 132.138 123.212 125.325 123.517L125.324 123.517C122.566 123.64 119.765 123.766 116.952 123.903C107.311 124.375 97.5621 124.991 89.497 126.198C85.4646 126.802 81.6906 127.576 78.4793 128.616C75.3853 129.618 69.769 133.508 67.5167 135.76C58.7098 144.567 54.4282 151.707 52.0468 155.679C51.9989 155.759 51.9518 155.837 51.9055 155.915C50.3727 158.469 51.2011 161.783 53.7557 163.315C56.3103 164.848 59.6237 164.02 61.1565 161.465C61.2432 161.321 61.3335 161.17 61.4274 161.012C63.4595 157.613 67.2334 151.301 75.1453 143.389C75.5901 142.944 79.2628 139.702 81.8033 138.88C84.2264 138.095 87.3553 137.428 91.094 136.868C98.571 135.749 107.837 135.151 117.48 134.679C120.177 134.547 122.909 134.425 125.629 134.303H125.629C132.513 133.995 139.327 133.689 145.349 133.238C153.494 132.626 161.26 131.696 166.001 129.664C169.498 128.166 171.878 125.139 173.519 122.082C175.204 118.942 176.462 115.115 177.402 111.01C179.289 102.777 180.095 92.5476 179.991 82.3068C179.887 72.0434 178.866 61.4944 176.965 52.5793C176.014 48.1233 174.821 43.9645 173.355 40.4066C171.921 36.9249 170.071 33.6318 167.612 31.2706C164.903 28.6698 160.741 27.0218 156.502 25.8625C152.052 24.6456 146.644 23.746 140.687 23.1217C128.755 21.8712 114.096 21.6727 99.3842 22.4939C84.6762 23.3148 69.718 25.1657 57.2085 28.0886C50.9561 29.5495 45.1981 31.3051 40.341 33.3916C35.5643 35.4436 31.2507 37.9863 28.2806 41.2265C25.6995 44.0422 24.0179 47.8347 22.8656 51.8574C21.6939 55.9482 20.9486 60.7124 20.5118 65.8627C19.6379 76.1645 19.9526 88.5951 20.9311 101.475C22.8905 127.266 27.571 155.576 31.2869 173.793C31.8823 176.712 34.7314 178.596 37.6504 178C40.5695 177.405 42.4531 174.556 41.8577 171.637C38.2015 153.712 33.6039 125.869 31.6885 100.657C30.7296 88.0355 30.4576 76.2527 31.2616 66.7746C31.6636 62.035 32.3234 58.0175 33.237 54.8282C34.1701 51.5708 35.2542 49.5847 36.2333 48.5166ZM142.883 78.3262C143.299 84.27 138.817 89.4253 132.874 89.841C126.93 90.2566 121.774 85.7751 121.359 79.8313C120.943 73.8876 125.425 68.7322 131.368 68.3166C137.312 67.901 142.468 72.3824 142.883 78.3262ZM100.587 92.0987C106.531 91.683 111.012 86.5277 110.597 80.5839C110.181 74.6401 105.026 70.1587 99.0819 70.5743C93.1381 70.9899 88.6567 76.1453 89.0723 82.089C89.4879 88.0328 94.6433 92.5143 100.587 92.0987ZM68.3005 94.3564C74.2443 93.9407 78.7258 88.7854 78.3101 82.8416C77.8945 76.8978 72.7392 72.4164 66.7954 72.832C60.8516 73.2476 56.3701 78.4029 56.7858 84.3467C57.2014 90.2905 62.3567 94.772 68.3005 94.3564Z" fill="url(#paint0_linear_17_143)"/>
<defs>
<linearGradient id="paint0_linear_17_143" x1="26.5333" y1="153.263" x2="165.629" y2="59.9715" gradientUnits="userSpaceOnUse">
<stop offset="0.03" stop-color="#C536C9"/>
<stop offset="0.495" stop-color="#E83EEC"/>
<stop offset="0.97" stop-color="#FB406D"/>
</linearGradient>
</defs>
</svg>
