<svg width="32" height="32" viewBox="0 0 32 32" fill="none" xmlns="http://www.w3.org/2000/svg">
  <g clip-path="url(#clip0_504_970)">
    <path d="M32 1.77317V24.7932C32 26.1132 30.6066 26.9665 29.4266 26.3732L18.7333 20.9398H15.1866V29.0865C15.1866 30.6932 13.88 31.9998 12.2666 31.9998C11.46 31.9998 10.7333 31.6732 10.2066 31.1465C9.67998 30.6198 9.35331 29.8932 9.35331 29.0932V20.9465H7.91998C3.66665 20.9398 -0.033354 17.4732 -2.06426e-05 13.2198C0.0199794 11.1265 0.866646 9.23983 2.23998 7.8665C3.62665 6.47983 5.54665 5.6265 7.65331 5.6265H18.7333L29.4266 0.193165C30.6066 -0.406835 32 0.453165 32 1.77317Z" fill="url(#paint0_linear_504_970)"/>
  </g>
  <defs>
    <linearGradient id="paint0_linear_504_970" x1="-0.0514502" y1="15.9991" x2="32.0266" y2="15.9991" gradientUnits="userSpaceOnUse">
      <stop stop-color="#FB43FF"/>
      <stop offset="0.97" stop-color="#FB406D"/>
    </linearGradient>
    <clipPath id="clip0_504_970">
      <rect width="32" height="32" fill="white"/>
    </clipPath>
  </defs>
</svg>
