<svg width="20" height="20" viewBox="0 0 200 200" fill="none" xmlns="http://www.w3.org/2000/svg">
<path fill-rule="evenodd" clip-rule="evenodd" d="M64.898 20.2713C82.547 19.7268 104.056 20.2316 125.098 22.5326C125.946 22.6254 126.728 22.9064 127.407 23.3295C128.101 23.544 128.779 23.8842 129.414 24.3624C135.402 28.8702 156.515 44.4398 173.508 53.1431C176.211 54.5279 177.28 57.8421 175.895 60.5457C174.511 63.2492 171.196 64.3184 168.493 62.9336C161.026 59.1089 152.889 54.0842 145.505 49.1981L145.502 49.1964C139.695 45.3537 134.353 41.5968 130.168 38.577C130.288 43.1615 130.493 48.6568 130.843 54.0348C131.168 59.0137 131.61 63.7812 132.203 67.5906C132.501 69.4997 132.821 71.064 133.15 72.2451C133.227 72.5223 133.299 72.7567 133.364 72.9528C134.344 73.0968 135.782 73.1689 137.679 73.1301C141.719 73.0476 146.943 72.4885 152.24 71.7437C157.498 71.0045 162.662 70.1067 166.524 69.3908C168.451 69.0335 170.046 68.7229 171.157 68.5023C171.712 68.392 172.145 68.3043 172.438 68.2445C172.585 68.2146 172.696 68.1917 172.77 68.1765L172.852 68.1595L172.871 68.1554L172.876 68.1546L172.876 68.1545L145.505 49.1981L172.876 68.1544C173.341 68.0573 173.805 68.0221 174.259 68.0431C177.013 67.9187 179.482 69.878 179.93 72.6656C181.443 82.0767 181.515 97.0569 180.97 113.616C180.419 130.321 179.216 149.123 178.035 166.415L177.74 170.727L173.48 171.46C148.007 175.844 114.287 178.357 86.5052 178.919C72.6109 179.2 60.0645 178.995 50.687 178.27C46.0238 177.909 41.9691 177.407 38.8661 176.72C37.3299 176.38 35.8227 175.951 34.5233 175.375C33.467 174.906 31.4463 173.881 30.3046 171.745C28.6234 168.6 27.206 164.042 25.974 158.887C24.7137 153.613 23.5516 147.291 22.5123 140.355C20.4328 126.477 18.8072 109.89 17.894 93.8311C16.9821 77.7958 16.7707 62.1214 17.5621 50.1059C17.9556 44.1327 18.6105 38.8282 19.6348 34.7662C20.1431 32.7509 20.8046 30.7828 21.7219 29.1238C22.5743 27.5821 24.1082 25.4716 26.7545 24.5626C30.1106 23.4098 35.4046 22.4971 41.7147 21.796C48.1592 21.08 56.071 20.5436 64.898 20.2713ZM65.2373 31.2661C81.0943 30.7768 100.154 31.1583 119.05 32.9699C119.13 38.2241 119.335 46.5924 119.867 54.75C120.2 59.8621 120.668 65.0024 121.335 69.2839C121.667 71.4203 122.066 73.4471 122.554 75.1988C123.004 76.8122 123.672 78.7386 124.789 80.2712C125.82 81.6854 127.18 82.4553 128.179 82.8838C129.219 83.3301 130.308 83.5932 131.297 83.7617C133.272 84.0984 135.576 84.1754 137.904 84.1278C142.605 84.0318 148.341 83.4001 153.772 82.6366C159.242 81.8675 164.575 80.9394 168.529 80.2065C168.942 80.13 169.34 80.0555 169.722 79.9835C170.417 88.3079 170.415 99.9286 169.975 113.254C169.477 128.373 168.435 145.29 167.355 161.322C143.141 165.154 112.174 167.398 86.2829 167.921C72.5684 168.198 60.4154 167.99 51.5357 167.303C47.0702 166.957 43.6069 166.503 41.2439 165.98C40.4744 165.809 39.905 165.649 39.5029 165.515C38.6379 163.548 37.6664 160.488 36.6727 156.33C35.5096 151.463 34.4018 145.472 33.3909 138.725C31.3699 125.238 29.774 108.992 28.8763 93.2066C27.9773 77.3979 27.7882 62.2181 28.5384 50.8289C28.9157 45.0997 29.5171 40.5643 30.3009 37.456C30.6395 36.1135 30.9668 35.2246 31.2241 34.6887C33.5457 34.0345 37.4827 33.3339 42.9295 32.7287C49.0203 32.052 56.632 31.5316 65.2373 31.2661ZM38.7929 165.222C38.7962 165.221 38.8347 165.239 38.8983 165.28C38.8214 165.243 38.7896 165.223 38.7929 165.222ZM31.4954 34.214C31.4958 34.2155 31.4835 34.234 31.4572 34.2649C31.4819 34.2279 31.4951 34.2125 31.4954 34.214ZM46.5784 57.9837C52.3327 58.4264 58.9938 58.0475 65.7308 57.6643L65.7312 57.6642L65.7316 57.6642L65.732 57.6642C67.1447 57.5838 68.5608 57.5033 69.9725 57.4301C78.3502 56.9957 87.0482 56.7727 95.7637 57.9504C98.7739 58.3572 101.544 56.2467 101.951 53.2365C102.357 50.2263 100.247 47.4562 97.2367 47.0495C87.4522 45.7273 77.9002 46.0043 69.4029 46.4448C67.83 46.5264 66.3064 46.6122 64.8301 46.6953L64.8276 46.6955L64.8257 46.6956C58.1094 47.0738 52.3717 47.3969 47.422 47.0161C44.3934 46.7832 41.7494 49.0495 41.5164 52.0781C41.2834 55.1067 43.5497 57.7508 46.5784 57.9837ZM75.5088 85.3529C65.0631 85.9638 53.9994 86.5519 45.8858 84.8732C42.9113 84.2578 40.9988 81.3475 41.6143 78.3729C42.2297 75.3984 45.14 73.4859 48.1145 74.1013C54.501 75.4227 63.9373 75.0108 74.8666 74.3717C75.5135 74.3339 76.1649 74.2953 76.8201 74.2565L76.8522 74.2546L76.8686 74.2537C86.8215 73.6646 97.6384 73.0243 106.608 74.0209C109.627 74.3563 111.802 77.0756 111.467 80.0946C111.131 83.1136 108.412 85.2891 105.393 84.9536C97.395 84.065 87.4647 84.6494 77.1645 85.2557C76.6136 85.2881 76.0616 85.3206 75.5088 85.3529ZM47.5969 113.46C62.9238 114.587 78.0554 113.635 92.6458 112.716L92.6499 112.716C94.6792 112.588 96.698 112.461 98.7054 112.34C115.315 111.341 131.266 110.762 147.096 113.4C150.092 113.9 152.926 111.876 153.425 108.879C153.925 105.883 151.901 103.049 148.904 102.55C131.734 99.6883 114.686 100.359 98.045 101.36C95.996 101.483 93.9547 101.611 91.9197 101.739H91.9196C77.2607 102.659 62.9271 103.558 48.4035 102.49C45.3741 102.267 42.7378 104.542 42.515 107.572C42.2923 110.601 44.5675 113.238 47.5969 113.46Z" fill="url(#paint0_linear_108_413)"/>
<defs>
<linearGradient id="paint0_linear_108_413" x1="22.0448" y1="155.765" x2="162.787" y2="59.6252" gradientUnits="userSpaceOnUse">
<stop offset="0.03" stop-color="#C536C9"/>
<stop offset="0.495" stop-color="#E83EEC"/>
<stop offset="0.97" stop-color="#FB406D"/>
</linearGradient>
</defs>
</svg>
