<svg width="16" height="16" viewBox="0 0 16 16" fill="none" xmlns="http://www.w3.org/2000/svg">
    <g clip-path="url(#clip0_5669_24212)">
        <path d="M4.92999 9.83997C5.48228 9.83997 5.92999 9.39225 5.92999 8.83997C5.92999 8.28768 5.48228 7.83997 4.92999 7.83997C4.37771 7.83997 3.92999 8.28768 3.92999 8.83997C3.92999 9.39225 4.37771 9.83997 4.92999 9.83997Z" fill="white"/>
        <path d="M10.93 9.83997C11.4823 9.83997 11.93 9.39225 11.93 8.83997C11.93 8.28768 11.4823 7.83997 10.93 7.83997C10.3777 7.83997 9.92999 8.28768 9.92999 8.83997C9.92999 9.39225 10.3777 9.83997 10.93 9.83997Z" fill="white"/>
        <path d="M15.25 6.84H14.38C13.69 5.65 12.41 4.83 10.93 4.83H8.43V2.7C8.96 2.5 9.33 1.99 9.33 1.4C9.33 0.63 8.7 0 7.93 0C7.16 0 6.53 0.63 6.53 1.4C6.53 2 6.9 2.5 7.43 2.7V4.83H4.93C3.45 4.83 2.17 5.64 1.48 6.84C1.48 6.84 1.48 6.84 1.47 6.84H0.66C0.3 6.84 0 7.14 0 7.5V10.17C0 10.53 0.3 10.83 0.66 10.83H1.48C2.17 12.02 3.45 12.84 4.93 12.84H10.93C12.41 12.84 13.7 12.02 14.39 10.81C14.41 10.81 14.42 10.83 14.44 10.83H15.25C15.61 10.83 15.91 10.53 15.91 10.17V7.5C15.91 7.14 15.61 6.84 15.25 6.84ZM10.93 11.83H4.93C3.28 11.83 1.93 10.48 1.93 8.83C1.93 7.18 3.28 5.83 4.93 5.83H10.93C12.58 5.83 13.93 7.18 13.93 8.83C13.93 10.48 12.58 11.83 10.93 11.83Z" fill="#FB42E8"/>
        <path d="M4.93 10.05C5.59827 10.05 6.14 9.50827 6.14 8.84C6.14 8.17174 5.59827 7.63 4.93 7.63C4.26174 7.63 3.72 8.17174 3.72 8.84C3.72 9.50827 4.26174 10.05 4.93 10.05Z" fill="#FB42E8"/>
        <path d="M10.94 10.05C11.6083 10.05 12.15 9.50827 12.15 8.84C12.15 8.17174 11.6083 7.63 10.94 7.63C10.2717 7.63 9.73001 8.17174 9.73001 8.84C9.73001 9.50827 10.2717 10.05 10.94 10.05Z" fill="#FB42E8"/>
    </g>
    <defs>
        <clipPath id="clip0_5669_24212">
            <rect width="15.91" height="12.84" fill="white"/>
        </clipPath>
    </defs>
</svg>
